<svg height="512" viewBox="0 0 58 58" width="512" xmlns="http://www.w3.org/2000/svg"><g id="Page-1" fill="none" fill-rule="evenodd"><g id="002---Fly-Swatter" fill-rule="nonzero" transform="translate(-1 -1)"><path id="Shape" d="m56.07 15.24-11.31-11.31c-1.8738438-1.8774093-4.4174623-2.93242711-7.07-2.93242711s-5.1961562 1.05501781-7.07 2.93242711l-11.76 11.76c-2.7489825 2.7468853-3.6576053 6.8376381-2.33 10.49l3.48 9.57 4.24 4.24 9.57 3.48c3.6523619 1.3276053 7.7431147.4189825 10.49-2.33l11.76-11.76c1.8774093-1.8738438 2.9324271-4.4174623 2.9324271-7.07s-1.0550178-5.1961562-2.9324271-7.07zm-5.66 0-5.65 5.66-5.66-5.66 5.66-5.65zm-8.48 8.49-5.66 5.65-5.65-5.65 5.65-5.66zm-8.49-16.97c2.3461965-2.34022557 6.1438035-2.34022557 8.49 0l-5.66 5.65-4.24-4.24zm-4.24 4.24 4.24 4.24-5.65 5.66-4.25-4.24zm-8.92 13.81c-.6179806-1.7300041-.4155928-3.6471678.55-5.21l4.13 4.13-3.71 3.71zm6.17 11.72-2.98-2.98-.72-1.96 5.04-5.03 5.65 5.65-5.03 5.04zm8.74 3.19-2.63-.97 3.71-3.71 4.13 4.13c-1.5628322.9655928-3.4799959 1.1679806-5.21.55zm8.15-3.26-4.24-4.25 5.66-5.65 4.24 4.24zm9.9-9.9-1.41 1.41-4.24-4.24 5.65-5.66c2.3402256 2.3461965 2.3402256 6.1438035 0 8.49z" fill="#955ba5"/><path id="Shape" d="m17.0095923 36.9914069h6v5c0 .5522847-.4477153 1-1 1h-4c-.5522848 0-1-.4477153-1-1z" fill="#894b9d" transform="matrix(.707 .707 -.707 .707 34.139 -2.436)"/><path id="Shape" d="m7.73643703 38.7372604h3.99999997v21.053c0 1.1045695-.8954305 2-1.99999997 2-1.1045695 0-2-.8954305-2-2z" fill="#5d4c72" transform="matrix(.707 .707 -.707 .707 38.394 7.837)"/></g></g></svg>