<?xml version="1.0" encoding="UTF-8" standalone="no"?>
<!DOCTYPE svg PUBLIC "-//W3C//DTD SVG 1.1//EN" "http://www.w3.org/Graphics/SVG/1.1/DTD/svg11.dtd">
<svg version="1.1" xmlns="http://www.w3.org/2000/svg" xmlns:xlink="http://www.w3.org/1999/xlink" preserveAspectRatio="xMidYMid meet" viewBox="0 0 640 640" width="640" height="640"><defs><path d="M154.07 283.78L289.63 254.89L421.48 371.93L311.85 434.89L242.96 516.37L214.07 389.72L113.33 389.72L170.37 340.81L154.07 283.78Z" id="f179e6SOGz"></path><path d="M312.22 436.37L381.85 559.34L454.44 425.34C493.83 484.79 513.58 513.9 513.7 512.67C513.83 511.43 516.05 470.45 520.37 389.72L609.26 397.81L561.85 277.85L624.07 271.93L572.96 199.33L609.26 180.81L566.3 154.15L609.26 95.63L497.41 89.7L497.41 14.15L400.37 40.07L363.75 8.22L337.41 40.07L285.56 8.22L285.56 57.85L184.81 20.81L203.44 100.07L23.33 85.26L155.19 208.96L93.7 230.44L144.07 280.07L15.93 317.11L170 340.81" id="azNNJLmRA"></path><path d="M428.52 73.27C411.98 56.7 389.52 47.39 366.11 47.39C342.69 47.39 320.24 56.7 303.7 73.27C293.31 83.65 210.26 166.7 199.88 177.08C175.62 201.33 167.6 237.44 179.31 269.69C181.36 275.32 191.6 303.48 210.03 354.17L247.46 391.59C298.15 410.03 326.31 420.27 331.94 422.31C364.19 434.03 400.3 426.01 424.54 401.75C434.93 391.37 517.98 308.32 528.36 297.93C544.93 281.39 554.24 258.94 554.24 235.52C554.24 212.11 544.93 189.65 528.36 173.11C508.39 153.14 438.5 83.26 428.52 73.27ZM478.39 173.11L428.52 223.08L378.55 173.11L428.52 123.24L478.39 173.11ZM403.54 248.06L353.57 297.93L303.7 248.06L353.57 198.09L403.54 248.06ZM328.59 98.25C349.3 77.6 382.82 77.6 403.54 98.25C400.2 101.58 383.55 118.2 353.57 148.13L316.14 110.7C322.78 104.06 326.93 99.91 328.59 98.25ZM291.16 135.68L328.59 173.11L278.71 223.08L241.2 185.65L291.16 135.68ZM212.42 257.59C206.96 242.32 208.75 225.4 217.27 211.6C219.7 214.03 231.86 226.18 253.73 248.06L220.98 280.81C216.41 268.43 213.56 260.69 212.42 257.59ZM266.88 361.05L240.58 334.75L234.22 317.44L278.71 273.04L328.59 322.92L284.19 367.41L266.88 361.05ZM320.82 380.65L353.57 347.9C375.45 369.77 387.6 381.93 390.03 384.36C376.23 392.88 359.31 394.67 344.04 389.21C340.94 388.07 333.2 385.22 320.82 380.65ZM415.98 360.43L378.55 322.92L428.52 273.04L465.95 310.47L415.98 360.43ZM490.93 285.49L453.5 248.06C483.42 218.08 500.05 201.43 503.38 198.09C524.03 218.81 524.03 252.33 503.38 273.04C501.72 274.7 497.57 278.85 490.93 285.49Z" id="cAqvtdDt1"></path><path d="M210.05 354.1L247.5 391.55C228.77 410.27 218.37 420.67 216.29 422.75C212.85 426.2 207.26 426.2 203.81 422.75C201.31 420.26 181.34 400.29 178.85 397.79C175.4 394.34 175.4 388.75 178.85 385.31C183.01 381.15 193.41 370.74 210.05 354.1Z" id="k4fRwQS2wE"></path><path d="M178.84 397.81L203.81 422.77C124.97 501.61 81.17 545.41 72.41 554.17C65.52 561.06 54.34 561.06 47.45 554.17C40.55 547.27 40.55 536.1 47.45 529.2C64.97 511.68 108.76 467.89 178.84 397.81Z" id="a7eLamvwtS"></path><path d="" id="b1gz82VKwV"></path></defs><g><g><g><use xlink:href="#f179e6SOGz" opacity="1" fill="#ffffff" fill-opacity="1"></use><g><use xlink:href="#f179e6SOGz" opacity="1" fill-opacity="0" stroke="#ff0000" stroke-width="4" stroke-opacity="1"></use></g></g><g><use xlink:href="#azNNJLmRA" opacity="1" fill="#ffffff" fill-opacity="1"></use><g><use xlink:href="#azNNJLmRA" opacity="1" fill-opacity="0" stroke="#ff0000" stroke-width="4" stroke-opacity="1"></use></g></g><g><use xlink:href="#cAqvtdDt1" opacity="1" fill="#955ba5" fill-opacity="1"></use><g><use xlink:href="#cAqvtdDt1" opacity="1" fill-opacity="0" stroke="#000000" stroke-width="1" stroke-opacity="0"></use></g></g><g><use xlink:href="#k4fRwQS2wE" opacity="1" fill="#894b9d" fill-opacity="1"></use><g><use xlink:href="#k4fRwQS2wE" opacity="1" fill-opacity="0" stroke="#000000" stroke-width="1" stroke-opacity="0"></use></g></g><g><use xlink:href="#a7eLamvwtS" opacity="1" fill="#5d4c72" fill-opacity="1"></use><g><use xlink:href="#a7eLamvwtS" opacity="1" fill-opacity="0" stroke="#000000" stroke-width="1" stroke-opacity="0"></use></g></g><g><g><use xlink:href="#b1gz82VKwV" opacity="1" fill-opacity="0" stroke="#000000" stroke-width="2" stroke-opacity="1"></use></g></g></g></g></svg>